<svg width="273" height="273" viewBox="0 0 273 273" fill="none" xmlns="http://www.w3.org/2000/svg">
<g clip-path="url(#clip0_67_2)">
<path d="M65.3835 104.593C72.2881 107.744 76.6675 117.549 77.2135 131.233C77.5889 140.299 76.531 147.147 73.7669 153.13C67.3514 166.883 55.8171 167.372 49.1627 154.177C46.319 148.626 45.0905 142.517 45.0905 133.952C45.1587 124.818 46.137 119.46 49.0376 113.534C53.1667 105.094 59.2182 101.761 65.3835 104.593ZM176.494 105.458C183.217 109.894 187.847 123.965 186.914 137.035C185.867 152.63 178.963 163.857 170.58 163.857C165.95 163.857 161.206 159.785 158.124 153.13C153.005 142.028 153.312 123.407 158.863 112.556C162.992 104.411 170.511 101.397 176.494 105.458ZM140.913 0.329835C143.45 0.693835 143.814 1.01233 145.236 3.65133C147.329 7.47333 148.626 8.83834 152.516 11.3636C156.088 13.6386 156.088 13.7637 154.859 19.6218C153.801 24.5586 154.416 29.4271 156.702 33.8065C160.035 40.404 169.34 47.3086 177.859 49.4698C181.056 50.3343 182.353 50.3912 186.243 49.7201C188.768 49.3447 191.236 49.1627 191.726 49.3447C192.283 49.595 193.58 51.6197 194.683 53.9061C197.151 59.2182 203.328 65.5655 208.253 67.8518C216.273 71.6056 224.975 71.4236 233.347 67.2831C235.69 66.1228 238.033 65.3835 238.591 65.5655C239.08 65.7475 240.502 67.158 241.73 68.6481C242.97 70.1951 245.438 72.163 247.167 73.0275C250 74.5062 251.046 74.6882 255.733 74.62C259.43 74.5631 261.284 74.7565 261.716 75.3025C263.502 77.4637 268.427 100.339 270.532 116.07C272.386 130.187 272.568 161.764 270.839 175.562C268.564 194.262 265.174 210.29 260.487 224.713C257.155 234.951 254.197 241.673 248.089 252.65C238.841 269.303 235.258 273 228.478 273C226.588 273.006 224.704 272.777 222.87 272.317C218.855 270.964 212.69 266.22 203.192 257.211C191.976 246.61 187.221 242.913 181.306 240.012C174.094 236.429 166.996 236.122 160.831 239.148C159.352 239.887 155.166 243.22 151.651 246.61C144.258 253.64 141.414 255.175 134.93 255.608C126.922 256.108 122.418 254.072 109.837 244.324C104.479 240.194 100.532 238.34 96.1529 237.976C90.8521 237.544 86.9619 238.898 78.3965 244.085C69.9449 249.203 65.4404 250.796 59.5822 250.796C47.3769 250.796 36.764 243.288 25.8554 226.943C13.7069 208.617 4.823 183.024 1.93375 157.692C0.818996 148.137 0.636996 128.833 1.55837 119.392C6.42687 70.8662 29.9276 33.7382 67.8519 14.8216C79.6819 8.90658 92.6949 4.76608 107.551 2.24083C118.653 0.38671 134.998 -0.534665 140.913 0.329835ZM115.445 17.1648C86.905 19.9972 59.15 35.4103 42.4401 57.6143C25.0477 80.7397 15.3676 119.028 18.8939 150.776C21.1689 171.819 29.8594 195.673 41.5187 213.19C47.4337 222.063 49.7088 224.531 53.8493 226.567C60.1396 229.65 66.612 228.546 74.6314 223.052C81.7862 218.116 89.1914 215.966 97.1311 216.398C105.207 216.887 108.301 218.491 120.507 228.91C127.718 235.076 133.952 235.758 140.913 231.129C142.46 230.082 145.918 227.432 148.626 225.214C157.316 218.002 163.982 215.465 174.527 215.408C187.722 215.34 196.287 220.277 208.435 235.087C218.309 247.031 222.131 249.511 227.545 247.474C236.429 244.085 245.37 223.792 251.228 193.83C258.997 154.245 257.519 119.642 247.224 98.6212C243.891 91.7052 239.887 87.269 236.122 86.1656C233.779 85.4831 233.051 85.54 228.114 87.1438C223.359 88.6908 221.699 88.9411 215.533 88.9411C209.732 88.9411 207.696 88.6226 204.249 87.4623C197.652 85.2328 194.694 82.5256 187.346 72.0378C183.956 67.1693 180.999 65.5655 172.98 63.9616C158.192 61.1178 152.141 58.5357 146.897 52.8596C141.96 47.5588 138.82 40.4608 136.545 29.4953C135.92 26.2876 134.816 22.7727 134.134 21.658C131.609 17.5971 125.5 16.107 115.445 17.1648Z" fill="white"/>
</g>
<defs>
<clipPath id="clip0_67_2">
<rect width="273" height="273" fill="white"/>
</clipPath>
</defs>
</svg>
